<svg width="28" height="28" viewBox="0 0 28 28" fill="none" xmlns="http://www.w3.org/2000/svg">
<path fill-rule="evenodd" clip-rule="evenodd" d="M25.106 6.36879C25.4546 6.70345 25.4659 7.25736 25.1312 7.60597L19.2512 13.731C19.0862 13.9028 18.8583 14 18.62 14C18.3817 14 18.1538 13.9028 17.9888 13.731L14.42 10.0135L10.1909 14.4188L13.204 17.3114L3.5 20.125L5.91534 10.3143L8.92844 13.2069L13.7888 8.14404C13.9538 7.97216 14.1817 7.875 14.42 7.875C14.6583 7.875 14.8862 7.97216 15.0512 8.14404L18.62 11.8615L23.8688 6.39404C24.2035 6.04543 24.7574 6.03412 25.106 6.36879Z" fill="white"/>
</svg>
