<svg width="878" height="148" viewBox="0 0 878 148" fill="none" xmlns="http://www.w3.org/2000/svg">
<path d="M5.51046 200.213C38.8557 200.213 38.8557 38.5732 72.2012 38.5732C105.546 38.5732 105.546 75.3096 138.892 75.3096C172.237 75.3096 172.237 170.824 205.582 170.824C238.928 170.824 238.928 60.6151 272.274 60.6151C305.619 60.6151 305.619 185.519 338.963 185.519C372.309 185.519 372.309 112.046 405.654 112.046C439 112.046 439 82.6569 472.346 82.6569C505.691 82.6569 505.691 222.255 539.037 222.255C572.381 222.255 572.381 273.686 605.726 273.686C639.072 273.686 639.072 1.83682 672.418 1.83682C705.763 1.83682 705.763 148.782 739.109 148.782C772.453 148.782 772.453 236.95 805.798 236.95C839.144 236.95 839.144 45.9205 872.49 45.9205" stroke="#9494C7" stroke-width="3"/>
</svg>
